<svg width="155" height="27" viewBox="0 0 379 71" xmlns="http://www.w3.org/2000/svg" xmlns:xlink="http://www.w3.org/1999/xlink"><defs><path id="a" d="M0 71h378.8V0H0z"/></defs><g fill="none" fill-rule="evenodd"><path d="M7.1 0C3.2 0 0 3.1 0 7v57c0 3.8 3.2 7 7.1 7h351.4c3.9 0 7.1-3.1 7.1-7V7c0-3.8-3.2-7-7.1-7H7.1z" fill="#FFF"/><path d="M3 64V7c0-2.2 1.8-3.9 4.1-3.9h351.4c2.2 0 4.1 1.8 4.1 3.9v57c0 2.2-1.8 3.9-4.1 3.9H7.1C4.8 67.9 3 66.2 3 64zM7.1 0C3.2 0 0 3.1 0 7v57c0 3.8 3.2 7 7.1 7h351.4c3.9 0 7.1-3.1 7.1-7V7c0-3.8-3.2-7-7.1-7H7.1z" fill="#000"/><mask id="b" fill="#fff"><use xlink:href="#a"/></mask><path fill="#000" mask="url(#b)" d="M65.6 65.1h56.7V5.901H65.6zm59.1 0h56.7V5.901h-56.7zm59.6 0H241V5.901h-56.7zm59.5 0h56.7V5.901h-56.7z"/><path d="M358.1 63.5h-8.5l-11.9-17 13.7-19.2h-13.6l-2.4 3.8c-1.5 2.5-3.2 5.1-4.2 7.2-.9-2.1-2.6-4.7-4.1-7.2l-2.4-3.8h-13.9l13.7 19.5-12.2 16.7h-7.8V7.3h53.6v56.2z" fill="#FFF" mask="url(#b)"/><path fill="#000" mask="url(#b)" d="M6 65.1h56.7V5.901H6z"/><path d="M35.7 56.3c-11.8 0-18-8.7-18-20.4 0-12.7 7.5-20.4 18.1-20.4 9.7 0 13.6 4.2 16.3 11.6l-10 3.9c-1.4-3.7-2.8-6-6.4-6-4.6 0-6.6 4.6-6.6 10.9 0 6.1 1.9 10.9 6.7 10.9 3.4 0 4.9-1.9 7.1-5.6l9.3 4.9c-2.7 5.1-7.1 10.2-16.5 10.2m78.3-1.1L99.6 15.6H88.5L74.1 55.2H86l2.1-7H100l2.1 7H114zM97.3 39.5h-6.6l.7-2.6c1.4-5 2-7.2 2.5-9.9.5 2.7 1.1 4.8 2.5 9.9l.9 2.6zm73 15.9l-7.9-15.1c4.4-2 7.1-5.6 7.1-11.6 0-9.4-6.2-12.9-15.4-12.9h-17.7v39.6h10.8V42h4.4l6.5 13.4h12.2zM158.6 29c0 2.8-1.4 4.4-5 4.4h-6.5v-8.7h6.6c3.6 0 4.9 1.8 4.9 4.3zm49.2-3.9v5.5h12.4v9.3h-12.4v15.5h-10.9V15.8h31.3v9.3zm83.9 30.4l-14.4-39.6h-11.1l-14.3 39.6h11.8l2.1-7h11.9l2.1 7h11.9zM275 39.8h-6.6l.7-2.6c1.4-5 2-7.2 2.5-9.9.5 2.7 1.1 4.8 2.5 9.9l.9 2.6z" fill="#FFF" mask="url(#b)"/><path d="M358.1 63.5h-8.5l-11.9-17 13.7-19.2h-13.6l-2.4 3.8c-1.5 2.5-3.2 5.1-4.2 7.2-.9-2.1-2.6-4.7-4.1-7.2l-2.4-3.8h-13.9l13.7 19.5-12.2 16.7h-7.8V7.3h53.6v56.2zm-32.4 0l1-1.4c1.6-2.5 3.2-5.2 4.2-7.3 1.1 2.1 2.6 4.8 4.1 7.3l.9 1.4h-10.2zM302.9 65h56.7V5.8h-56.7V65z" fill="#000" mask="url(#b)"/><path d="M373.2 5.2c.9 0 1.6 0 1.6-1 0-.8-.7-.9-1.4-.9h-1.3v1.9h1.1zm-2-2.8h2.4c1.4 0 2.1.6 2.1 1.8 0 1.1-.7 1.6-1.7 1.7l1.8 2.7h-1L373.1 6h-1v2.6h-1V2.4h.1zm6.6 3.1c0-2.5-2-4.5-4.4-4.5-2.5 0-4.4 2-4.4 4.5s2 4.5 4.4 4.5c2.4 0 4.4-2 4.4-4.5zM373.4.1c3 0 5.4 2.4 5.4 5.4 0 3-2.4 5.4-5.4 5.4-3 0-5.4-2.4-5.4-5.4 0-3 2.4-5.4 5.4-5.4z" fill="#FFF" mask="url(#b)"/></g></svg>